<svg xmlns="http://www.w3.org/2000/svg" xmlns:xlink="http://www.w3.org/1999/xlink" version="1.1" x="300px" y="900px"  viewBox="0 0 100 125" style="enable-background:new 0 0 100 100;" xml:space="preserve"><style type="text/css">
	.st0{fill:#FFFFFF;}
</style><path d="M49.9099274,17.7165527c-17.1484375,0-31.1000957,13.9516602-31.1000957,31.1000977  S32.7614899,79.916748,49.9099274,79.916748S81.010025,65.9650879,81.010025,48.8166504  S67.0583649,17.7165527,49.9099274,17.7165527z M64.2162628,43.6636353c-0.7772217,3.9849243-3.227478,5.81604-3.96521,8.1674805  c-1.5939331,5.1442261,1.758667,3.7478638-0.2041626,11.8693237c-1.9628906,8.1674805-5.3192139,5.1615601-5.7633667,1.1526489  c-0.8215942-7.4158325-4.0442505-7.831604-4.3735962-7.9304199c-0.3293457,0.0988159-3.552002,0.5145874-4.3735962,7.9304199  c-0.4441528,4.0089111-3.8004761,7.0148315-5.7633667-1.1526489c-1.9628296-8.12146,1.3897705-6.7250977-0.2041626-11.8693237  c-0.7377319-2.3514404-3.1879883-4.1825562-3.96521-8.1674805c-0.9418945-4.8544312-0.8167725-14.8991699,4.7028809-14.8991699  c2.1340942,0,3.8269043,0.3227539,5.1508179,0.7509155c0.1251831,0.0394897,0.2437134,0.0790405,0.3622437,0.1185303  c0.8102417,0.2963867,1.4754639,0.6323242,2.0090332,0.9550781c0.6520386,0.3886108,1.3897705,0.5796509,2.0813599,0.5796509  s1.4293213-0.19104,2.0813599-0.5796509c0.5335693-0.3227539,1.1987915-0.6586914,2.0090332-0.9550781  c0.1185303-0.0394897,0.2370605-0.0790405,0.3622437-0.1185303c1.3239136-0.4281616,3.0167236-0.7509155,5.1508179-0.7509155  C65.0330353,28.7644653,65.1581573,38.8092041,64.2162628,43.6636353z" fill="#3468db" color="#black"/></svg>