<svg xmlns="http://www.w3.org/2000/svg" version="1.1" viewBox="-5.0 -10.0 110.0 135.0">
 <path d="m34 14c-1.1016 0-2 0.89844-2 2v4.0117c-7.7383 0.12109-14 6.4414-14 14.211v35.559c0 7.8398 6.3789 14.219 14.219 14.219h35.559c7.8398 0 14.219-6.3789 14.219-14.219v-35.559c0-7.7695-6.2617-14.09-14-14.211v-4.0117c0-1.1016-0.89844-2-2-2-1.1016 0-2 0.89844-2 2v4h-28v-4c0-1.1016-0.89844-2-2-2zm30 10v4c0 1.1016 0.89844 2 2 2s2-0.89844 2-2v-3.9883c5.5312 0.12109 10 4.6484 10 10.211v35.559c0 5.6406-4.5898 10.219-10.219 10.219h-35.559c-5.6406 0-10.219-4.5898-10.219-10.219v-27.781h51c1.1016 0 2-0.89844 2-2s-0.89844-2-2-2h-51.004v-3.7812c0-5.5586 4.4688-10.09 10-10.211v3.9883c0 1.1016 0.89844 2 2 2s2-0.89844 2-2v-4h28z" fill="#3468db"/>
</svg>